<svg width="25" height="25" viewBox="0 0 25 25" fill="none" xmlns="http://www.w3.org/2000/svg">
<path d="M12.5 23.25C6.57 23.25 1.75 18.43 1.75 12.5C1.75 6.57 6.57 1.75 12.5 1.75C18.43 1.75 23.25 6.57 23.25 12.5C23.25 18.43 18.43 23.25 12.5 23.25ZM12.5 3.25C7.4 3.25 3.25 7.4 3.25 12.5C3.25 17.6 7.4 21.75 12.5 21.75C17.6 21.75 21.75 17.6 21.75 12.5C21.75 7.4 17.6 3.25 12.5 3.25Z" fill="#3CBC78"/>
<path d="M12.5 16.75C12.09 16.75 11.75 16.41 11.75 16V10C11.75 9.59 12.09 9.25 12.5 9.25C12.91 9.25 13.25 9.59 13.25 10V16C13.25 16.41 12.91 16.75 12.5 16.75Z" fill="#3CBC78"/>
<path d="M15.5014 12.7504C15.3114 12.7504 15.1214 12.6804 14.9714 12.5304L12.5014 10.0604L10.0314 12.5304C9.74141 12.8204 9.26141 12.8204 8.97141 12.5304C8.68141 12.2404 8.68141 11.7604 8.97141 11.4704L11.9714 8.47043C12.2614 8.18043 12.7414 8.18043 13.0314 8.47043L16.0314 11.4704C16.3214 11.7604 16.3214 12.2404 16.0314 12.5304C15.8814 12.6804 15.6914 12.7504 15.5014 12.7504Z" fill="#3CBC78"/>
</svg>
